<?xml version="1.0" encoding="utf-8"?>
<!-- Generator: Adobe Illustrator 19.2.0, SVG Export Plug-In . SVG Version: 6.00 Build 0)  -->
<svg version="1.1" id="Layer_1" xmlns="http://www.w3.org/2000/svg" xmlns:xlink="http://www.w3.org/1999/xlink" x="0px" y="0px"
	 viewBox="0 0 1920 1081" style="enable-background:new 0 0 1920 1081;" xml:space="preserve">
<style type="text/css">
	.st0{fill:#A67C52;}
	.st1{fill:#F8C09D;}
	.st2{fill:#1A1A1A;}
	.st3{fill:#443833;}
	.st4{fill:#F2F2F2;}
	.st5{fill:#44A0C1;}
	.st6{fill:#FFFFFF;}
	.st7{fill:none;stroke:#FFFFFF;stroke-width:2.4831;stroke-miterlimit:10;}
	.st8{fill:none;stroke:#1A1A1A;stroke-width:4.9663;stroke-miterlimit:10;}
	.st9{fill:none;stroke:#1A1A1A;stroke-width:5.6022;stroke-miterlimit:10;}
	.st10{fill:#CCCCCC;}
	.st11{fill:#738891;}
	.st12{fill:#703B21;}
	.st13{fill:#F6AE8D;}
	.st14{fill:#EF937E;}
	.st15{fill:none;stroke:#91A89D;stroke-width:2.9104;stroke-miterlimit:10;}
	.st16{fill:none;stroke:#91A89D;stroke-width:2.9104;stroke-linecap:round;stroke-miterlimit:10;}
	.st17{fill:#E26C60;}
	.st18{fill:#333333;}
	.st19{fill:#1E3947;}
	.st20{fill:#2A4C66;}
	.st21{fill:#603813;}
	.st22{fill:#754C24;}
	.st23{fill:#E6E6E6;}
	.st24{fill:none;stroke:#EF937E;stroke-width:2;stroke-linecap:round;stroke-miterlimit:10;}
	.st25{fill:none;stroke:#E6E6E6;stroke-width:8;stroke-miterlimit:10;}
	.st26{fill:none;stroke:#808080;stroke-width:3;stroke-miterlimit:10;}
	.st27{fill:none;stroke:#808080;stroke-width:3;stroke-linecap:round;stroke-miterlimit:10;}
	.st28{fill:none;stroke:#E6E6E6;stroke-width:14.9912;stroke-miterlimit:10;}
	.st29{fill:none;stroke:#CCCCCC;stroke-width:20;stroke-linecap:round;stroke-miterlimit:10;}
	.st30{fill:#464D6D;}
	.st31{fill:#7799B7;}
	.st32{fill:none;stroke:#FFFFFF;stroke-width:10;stroke-linecap:round;stroke-miterlimit:10;}
	.st33{clip-path:url(#SVGID_2_);}
</style>
<path class="st0" d="M975,597.6c-14.3,0-23.6,14.4-23.6,28.6v18.4c0,7.2,4.2,11,9.3,11l0,0c5.2,0,8.3-3.8,8.3-11v-10.5
	c0-8.6,0.9-15.5,9.1-15.5l0,0c3.4,0,8.8,1.9,8.8,12v345.3c0,4.2,3.4,7.7,7.7,7.7h2.6c4.2,0,7.7-3.4,7.7-7.7V626.2
	c0-14.2-7-28.6-24.9-28.6L975,597.6L975,597.6z"/>
<path class="st1" d="M953.7,603.5c0,0,9.5-0.8,19.6,4.3s16.7,11.5,20.1,12.6c3.3,1.1,9.3-7.9-3.8-13.7c-8.2-3.6-7.8-3.3-3.5-1.7
	s8.6,4.4,11.9,10.4c3.3,6,9,9.9,11.3,4.9c2.3-4.9-1.8-8.3-1.8-8.3s5.6,3,7.2-1.3c1.6-4.3-1.9-10.2-4.2-13.2c0,0,3.4-4.3-2-7.9
	c-5.4-3.5-13.8-11.1-20.2-14.1s-30.5,4.3-30.5,4.3L953.7,603.5z"/>
<g>
	<polygon class="st1" points="1198.7,929.3 1177.7,929.3 1120.7,587.3 1187.7,587.3 	"/>
	<polygon class="st1" points="1256.8,929.3 1277.8,929.3 1230.3,587.3 1169.3,587.3 	"/>
	<path class="st1" d="M1256.4,928.4l-10,44.8c0,0,1,14.9,12.6,14.9s13.9-11.3,15.9-21.4c1.9-10,2.5-38.3,2.5-38.3H1256.4z"/>
	<path class="st2" d="M1281.9,938.8c-0.1,1.2,3.2,35.3,1.3,35.3c-2.9,0-5.9,0-5.9,0s3.5-31.4,2.3-35.3
		C1278.5,935,1281.9,938.8,1281.9,938.8z"/>
	<path class="st3" d="M1248.5,963.8c3.9-2.7,5.7-2.5,11.5-1.4s10.3,4.3,13.4,6.3s1.5-11.3,1.8-22.3s2.1-17.9,2.1-17.9l0.4-3.8
		c0,0,5.5,2.7,4.5,10.8s-3.2,30.5-2.9,40.2c0.3,9.7-13.9,14.5-26.2,14.8c-12.3,0.3-11.7-3.2-11.1-9.5
		C1242.8,974.8,1244.6,966.5,1248.5,963.8z"/>
	<path class="st1" d="M1176.6,928.4l-10,44.8c0,0,1,14.9,12.6,14.9c11.7,0,13.9-11.3,15.9-21.4c1.9-10,2.5-38.3,2.5-38.3H1176.6z"/>
	<path class="st2" d="M1202.2,938.8c-0.1,1.2,3.2,35.3,1.3,35.3c-2.9,0-5.9,0-5.9,0s3.5-31.4,2.3-35.3
		C1198.7,935,1202.2,938.8,1202.2,938.8z"/>
	<path class="st3" d="M1168.7,963.8c3.9-2.7,5.7-2.5,11.5-1.4s10.3,4.3,13.4,6.3c3.1,1.9,1.5-11.3,1.8-22.3s2.1-17.9,2.1-17.9
		l0.4-3.8c0,0,5.5,2.7,4.5,10.8s-3.2,30.5-2.9,40.2c0.3,9.7-13.9,14.5-26.2,14.8c-12.3,0.3-11.7-3.2-11.1-9.5
		C1163.1,974.8,1164.9,966.5,1168.7,963.8z"/>
	<path class="st4" d="M1261.5,502.9l15.9-110.2c0-17.5-10.8-32.3-24.2-32.3h-103.5c-13.4,0-24.2,14.8-24.2,32.2l14.2,106.4
		c0,0-25.6,81.8-25.6,115.1s0,145,0,145h172c0,0,0-114.5,0-145S1261.5,502.9,1261.5,502.9z"/>
	<polygon class="st5" points="1181.7,760 1198.9,686.6 1215.5,760 	"/>
	<rect x="1113.8" y="759.3" class="st5" width="171.5" height="25.6"/>
	<path class="st4" d="M1293.6,370.2c0,0-7.6-9.9-39.1-9.9c-18.1,0,20.5,27.7,20.5,27.7L1293.6,370.2z"/>
	<path class="st4" d="M1163.3,360.3c0,0-45.8-2.9-53.3,13c-7.1,15.1,16.6,23.1,16.6,23.1L1163.3,360.3z"/>
	<polygon class="st1" points="1220.7,360.3 1216,403.8 1172.8,403.8 1169.5,360.3 	"/>
	<path class="st5" d="M1216,394.3c0,0-6,9.5-21,9.5s-24.5-9.5-24.5-9.5l22.3,63.8L1216,394.3z"/>
	<polygon class="st6" points="1169.5,360.3 1192.8,458 1150.6,394.8 1158.6,387 1148.4,376.4 	"/>
	<polygon class="st6" points="1220.7,360.3 1192.8,458 1239.6,394.8 1231.6,387 1241.8,376.4 	"/>
	<path class="st4" d="M1219.2,451.5h19.8c3.7,0,6.7-3,6.7-6.7v-4.3h-33.3v4.3C1212.5,448.5,1215.5,451.5,1219.2,451.5z"/>
	<path class="st4" d="M1102.1,520.2L1102.1,520.2c10.1,1.5,19.5-5.4,21-15.4l18.5-120.7c1.5-10.1,2.4-23.6-8.1-22.4
		c-22.6,2.5-26.3,12.4-29.5,27.1l-17.4,110.4C1085.1,509.2,1092,518.6,1102.1,520.2z"/>
	<path class="st4" d="M1342.6,508.8L1342.6,508.8c9.2-4.5,13-15.5,8.5-24.7l-53.5-109.8c-4.5-9.2-15.5-13-24.7-8.5l0,0
		c-9.2,4.5-13,15.5-8.5,24.7l53.5,109.8C1322.4,509.5,1333.5,513.3,1342.6,508.8z"/>
	<g>
		<path class="st7" d="M1156.1,465.2l-10.5,1.2c-6.8-0.4-11-11.4-10.3-26.7l2-30.8c0.1-10.9,6.5-19.8,15.1-20.8l0.5-0.1
			c8.6-1,16.8,6.2,19.4,16.9l9.4,31.2c5.7,15.8-0.6,26.2-5.6,26.7l-8.8,1"/>
		<path class="st8" d="M1136.1,427.8l1.2-18.6c1.1-11.7,6.5-19.6,15.1-20.6l0.5-0.1c8.6-1,15.5,6.4,19.3,16.7l5.4,17.9"/>
		<path d="M1169.5,460.2l2.8-0.3c2-0.2,3.8,1.2,4,3.2l0.1,0.5c0.2,2-1.2,3.8-3.2,4l-2.8,0.3c-2,0.2-3.8-1.2-4-3.2l-0.1-0.5
			C1166,462.2,1167.5,460.4,1169.5,460.2z"/>
		<path d="M1150.9,462.3l2.8-0.3c2-0.2,3.8,1.2,4,3.2l0.1,0.5c0.2,2-1.2,3.8-3.2,4l-2.8,0.3c-2,0.2-3.8-1.2-4-3.2l-0.1-0.5
			C1147.5,464.3,1148.9,462.5,1150.9,462.3z"/>
		<path class="st9" d="M1170.8,358.8L1170.8,358.8c-7.6-1.2-15.5,10.5-17.4,21.4l-0.4,2.9l-0.8,5.5"/>
		<path class="st9" d="M1219.2,361L1219.2,361c7.7-2,24.3,12.7,22.6,41.2c-1.3,22.2-6.3,36.3-6.3,36.3"/>
		
			<ellipse transform="matrix(0.9683 -0.2499 0.2499 0.9683 -71.5495 322.1518)" class="st6" cx="1232.9" cy="442.9" rx="12.9" ry="12.9"/>
		<ellipse transform="matrix(0.9683 -0.2499 0.2499 0.9683 -71.5495 322.1518)" cx="1232.9" cy="442.9" rx="8.1" ry="8.1"/>
		
			<ellipse transform="matrix(0.9683 -0.2499 0.2499 0.9683 -71.5495 322.1518)" class="st10" cx="1232.9" cy="442.9" rx="5.1" ry="5.1"/>
	</g>
	<path class="st11" d="M1222.8,577.3l-34.4-123.4c-1.4-4.9,1.5-9.9,6.3-11.3l76-21.2c4.9-1.4,9.9,1.5,11.3,6.3l34.4,123.4
		c1.4,4.9-1.5,9.9-6.3,11.3l-76,21.2C1229.2,585,1224.1,582.2,1222.8,577.3z"/>
	<path class="st4" d="M1353.7,489.9L1353.7,489.9c-2.6-9.9-12.6-15.8-22.5-13.2l-100.4,26.2l9.3,35.7l100.4-26.2
		C1350.4,509.9,1356.3,499.8,1353.7,489.9z"/>
	<circle class="st12" cx="1242.3" cy="306.8" r="32.3"/>
	<path class="st12" d="M1275.1,229.3c-0.3,27.9-3.1,46.4-29.3,81.7c-27.4,36.8-97,20.1-118.5-0.8s-37.1-98.2-9.4-140.1l136.7-4.6
		C1254.6,165.6,1275.5,189.9,1275.1,229.3z"/>
	<path class="st1" d="M1170.5,354.9c0,13.4,10.9,24.5,24.3,24.5l0,0h0.2c13.4,0,24.5-11.1,24.5-24.5v-24.6h-49V354.9z"/>
	<path class="st13" d="M1219.5,349.6c-8.4,4.3-16.6,8.2-23.9,8.2c-7.6,0-16.4-1.4-25.1-5.8v-16h49V349.6z"/>
	<path class="st1" d="M1193.2,348.2c28,0,64-40,64-67v-91.8H1122v91.8C1122,309.6,1146.4,348.2,1193.2,348.2z"/>
	<circle class="st1" cx="1259.9" cy="268.8" r="17.7"/>
	<path class="st14" d="M1263.4,271.3c0-3.5-2.8-6.3-6.3-6.3c-1,0-1.9,0.2-2.7,0.6c1.1-1.8,3.1-3.1,5.4-3.1c3.5,0,6.3,2.8,6.3,6.3
		c0,2.5-1.5,4.7-3.6,5.7C1263.1,273.6,1263.4,272.5,1263.4,271.3z"/>
	<path class="st12" d="M1149.5,205.7c0,0,30.3,17.7,55.3,22.9c26.7,5.6,50.8,1.2,50.8,1.2s27.2-24,4.8-57.4
		c-34.4-51.2-110.4-38.4-137.4-9c-23.7,25.8-3.7,71.3-3.7,71.3s5.4-0.5,13.9-10.1C1143.6,212.9,1149.5,205.7,1149.5,205.7z"/>
	<circle class="st1" cx="1114" cy="268.8" r="17.7"/>
	<path class="st14" d="M1110.4,271.3c0-3.5,2.8-6.3,6.3-6.3c1,0,1.9,0.2,2.7,0.6c-1.1-1.8-3.1-3.1-5.4-3.1c-3.5,0-6.3,2.8-6.3,6.3
		c0,2.5,1.5,4.7,3.6,5.7C1110.8,273.6,1110.4,272.5,1110.4,271.3z"/>
	<path class="st15" d="M1205.1,274.5h30.5c4.6,0,8.3-3.7,8.3-8.3v-13.5c0-4.6-3.7-8.3-8.3-8.3h-30.5c-4.6,0-8.3,3.7-8.3,8.3v13.5
		C1196.8,270.8,1200.5,274.5,1205.1,274.5z"/>
	<path class="st15" d="M1143.5,274.5h30.5c4.6,0,8.3-3.7,8.3-8.3v-13.5c0-4.6-3.7-8.3-8.3-8.3h-30.5c-4.6,0-8.3,3.7-8.3,8.3v13.5
		C1135.1,270.8,1138.9,274.5,1143.5,274.5z"/>
	<path class="st15" d="M1196.8,259.4c0,0.4-3-3.2-7.5-3.2s-7,3.4-7,3.4"/>
	<line class="st16" x1="1259.9" y1="251.1" x2="1244" y2="255.9"/>
	<line class="st16" x1="1134.9" y1="255.9" x2="1119" y2="251.1"/>
	<path class="st17" d="M1206.9,303.9c0,9-7.3,15.3-16.3,15.3l0,0c-9,0-16.3-6.3-16.3-15.3"/>
	<path class="st14" d="M1184.6,290.7c0,0.6,0.7,1.1,1.4,1.1h7.9c2.2,0,3.3-2.5,2-4.2l-9.2-11c-0.7-0.8-2.1-0.3-2.1,0.7"/>
	<ellipse class="st18" cx="1219.7" cy="259.6" rx="4.7" ry="8.3"/>
	<ellipse class="st18" cx="1160.4" cy="259.6" rx="4.7" ry="8.3"/>
	<g>
		<path class="st1" d="M1235.9,542.1l-8.2,2.1c-3.5,0.9-7.1-1.2-8-4.8l-7.1-27.7c-0.9-3.5,1.2-7.1,4.8-8l8.2-2.1
			c3.8-1,7.6,1.3,8.5,5.1l6.9,26.9C1241.9,537.3,1239.6,541.1,1235.9,542.1z"/>
		<path class="st1" d="M1231.4,505.1L1231.4,505.1c0.7,2.8-1,5.6-3.8,6.3l-23.2,5.9c-2.8,0.7-5.6-1-6.3-3.8l0,0
			c-0.7-2.8,1-5.6,3.8-6.3l23.2-5.9C1227.8,500.7,1230.7,502.3,1231.4,505.1z"/>
		<path class="st1" d="M1229.4,516.4L1229.4,516.4c0.7,2.8-1,5.6-3.8,6.3l-23.2,5.9c-2.8,0.7-5.6-1-6.3-3.8l0,0
			c-0.7-2.8,1-5.6,3.8-6.3l23.2-5.9C1225.8,511.9,1228.7,513.6,1229.4,516.4z"/>
		<path class="st1" d="M1234.5,525.9L1234.5,525.9c0.7,2.8-1,5.6-3.8,6.3l-23.2,5.9c-2.8,0.7-5.6-1-6.3-3.8l0,0
			c-0.7-2.8,1-5.6,3.8-6.3l23.2-5.9C1231,521.4,1233.8,523.1,1234.5,525.9z"/>
		<path class="st1" d="M1240.8,535.1L1240.8,535.1c0.7,2.8-1,5.6-3.8,6.3l-23.2,5.9c-2.8,0.7-5.6-1-6.3-3.8l0,0
			c-0.7-2.8,1-5.6,3.8-6.3l23.2-5.9C1237.2,530.6,1240.1,532.3,1240.8,535.1z"/>
	</g>
	<path class="st4" d="M1117,514.3L1117,514.3c-7,7.4-18.7,7.7-26.1,0.7l-83.7-80.3l25.4-26.8l83.7,80.3
		C1123.6,495.2,1124,506.9,1117,514.3z"/>
	<path class="st1" d="M1018.9,389c3.3,6.9,8.4,15.5,10.6,19.2c0.6,1.1,0.5,2.4-0.4,3.3l-16.7,17.5c-0.9,0.9-2.2,1.1-3.3,0.5
		c-10.1-5.9-18.6-10.5-28.6-25.3c-14.3-21.2-10.8-28.7-6.4-30.5c2.7-1.1,5,2.1,6.5,4.7c-1.8-6.3,5.1-8.4,9-2.9
		c0.9-0.7,6-4.4,10.3,3.8c2,3.8,7.2,11.1,10.6,14.2c-0.4-0.9-0.9-1.9-1.4-2.9C1005.9,383.6,1014.6,380,1018.9,389z"/>
</g>
<path class="st19" d="M866.2,582.4L866.2,582.4c-9.4,3.8-20.2-0.7-24-10.1l-46-113.1c-3.8-9.4,0.7-20.2,10.1-24l0,0
	c9.4-3.8,20.2,0.7,24,10.1l46,113.1C880.2,567.8,875.7,578.5,866.2,582.4z"/>
<path class="st19" d="M859.4,524.6L859.4,524.6c5.6-8.5,17-10.9,25.5-5.3l86.7,57l-20.3,30.8l-86.7-57
	C856.2,544.5,853.8,533.1,859.4,524.6z"/>
<path class="st19" d="M599.6,552.2L599.6,552.2c7.9,6.4,19.6,5.1,25.9-2.8l76.4-95.2c6.4-7.9,5.1-19.6-2.8-25.9l0,0
	c-7.9-6.4-21.9,0.1-32,11.2l-70.3,86.9C590.4,534.2,591.6,545.9,599.6,552.2z"/>
<path class="st19" d="M629.1,529.8L629.1,529.8c-3.9-9.4-14.7-13.8-24.1-9.9l-95.7,40l14.2,34l95.7-40
	C628.6,550,633,539.2,629.1,529.8z"/>
<g>
	<path class="st1" d="M516.8,587l5.3,9.9l-30.8,16.6c-2.7,1.5-6.1,0.4-7.6-2.3l0,0c-1.5-2.7-0.4-6.1,2.3-7.6L516.8,587z"/>
	<path class="st1" d="M511.2,576.8l5,10l-37.9,18.8c-2.8,1.4-6.1,0.2-7.5-2.5l0,0c-1.4-2.8-0.2-6.1,2.5-7.5L511.2,576.8z"/>
	<path class="st1" d="M503,569.5l3.9,10.5l-39.7,14.6c-2.9,1.1-6.1-0.4-7.2-3.3l0,0c-1.1-2.9,0.4-6.1,3.3-7.2L503,569.5z"/>
	<path class="st1" d="M505.3,560.4l1.9,11l-41.7,7c-3.1,0.5-5.9-1.5-6.5-4.6l0,0c-0.5-3.1,1.5-5.9,4.6-6.5L505.3,560.4z"/>
	<path class="st1" d="M511.9,556l-3.3,10.7l-24.4-7.5c-3-0.9-4.6-4-3.7-7l0,0c0.9-3,4-4.6,7-3.7L511.9,556z"/>
	<path class="st1" d="M504.8,555.9l-8.4,3.1c-1.5,0.6-2.3,2.3-1.8,3.8l13.5,36.7c0.6,1.5,2.3,2.3,3.8,1.8l8.4-3.1
		c5.8-2.1,8.8-8.5,6.6-14.3l-7.8-21.3C517.1,556.7,510.6,553.8,504.8,555.9z"/>
</g>
<path class="st20" d="M833.6,627.6H659.7V468.1c0-37.5,30.4-68,68-68h38c37.5,0,68,30.4,68,68v159.5H833.6z"/>
<path class="st21" d="M720.8,688.4h51.8c33.7,0,61.1-27.3,61.1-61.1l0,0h-174l0,0C659.7,661,687.1,688.4,720.8,688.4z"/>
<circle class="st13" cx="747.9" cy="413.6" r="26.1"/>
<path class="st22" d="M724.2,946l3.2,41l-80.8,0.4c0,0,3-18.4,22.9-21.9c19.8-3.6,36.6,7.8,36.6,7.8L705,946H724.2z"/>
<path class="st22" d="M778.4,946l-4.2,41l80.8,0.4c0,0-3-18.4-22.9-21.9s-36.6,7.8-36.6,7.8l2.1-27.3H778.4z"/>
<path class="st21" d="M769.1,946h41c0,0,14.1-158.4,12-189.1c-3.4-49.5-15.4-113.6-15.4-113.6h-41c0,0,11.9,65.6,16.9,111.2
	C785.9,783.8,769.1,946,769.1,946z"/>
<path class="st21" d="M732.3,946h-41c0,0-7.6-102.9-12-133c-9.4-64.7,15.7-169.7,15.7-169.7h41c0,0-26.6,113.5-17.2,167.3
	C724,840.2,732.3,946,732.3,946z"/>
<path class="st23" d="M669.9,316c0-27.9,5.7-54.8,37-73.7c40.6-24.5,78,5,78,5s26-5.8,44.8,24.7c15.4,24.9,7.9,45.7,5.6,57.4
	c-7,36.2-27.1,69.4-72.9,69.4S669.9,361.7,669.9,316z"/>
<path class="st1" d="M754.2,428.6c28.3,0,68.3-40.5,68.3-79.7v-46.2c0-16.9-13.7-30.6-30.6-30.6h-75.3c-16.9,0-30.6,13.7-30.6,30.6
	v57.5C686,405.4,724.7,428.6,754.2,428.6z"/>
<circle class="st1" cx="822.9" cy="329.4" r="19.4"/>
<path class="st14" d="M826.8,332.2c0-3.8-3.1-6.9-6.9-6.9c-1,0-2,0.2-2.9,0.7c1.2-2,3.4-3.4,5.9-3.4c3.8,0,6.9,3.1,6.9,6.9
	c0,2.8-1.6,5.1-4,6.2C826.4,334.6,826.8,333.4,826.8,332.2z"/>
<circle class="st1" cx="681.9" cy="329.4" r="19.4"/>
<path class="st14" d="M678,332.2c0-3.8,3.1-6.9,6.9-6.9c1,0,2,0.2,2.9,0.7c-1.2-2-3.4-3.4-5.9-3.4c-3.8,0-6.9,3.1-6.9,6.9
	c0,2.8,1.6,5.1,4,6.2C678.4,334.6,678,333.4,678,332.2z"/>
<path class="st23" d="M686,310c0,0,4-2.2,9-11.2s6.4-14.5,6.4-14.5s27,3.3,45.6,2.6c27.8-1.1,57.6-3.4,57.6-3.4s1.5,25,12.4,26
	c6.4,0.6,5.9,0.6,5.9,0.6l0.1-48l-136.6,5.5L686,310z"/>
<line class="st24" x1="734" y1="299" x2="768" y2="299"/>
<line class="st24" x1="728" y1="309" x2="774" y2="309"/>
<path class="st25" d="M716.8,326.8c0,0,5.3-1.5,8.3-1.5c6.4,0,10.4,2.4,10.4,2.4"/>
<path class="st25" d="M760.8,326.8c0,0,5.3-1.5,8.3-1.5c6.4,0,10.4,2.4,10.4,2.4"/>
<path class="st26" d="M765.7,349.5h10.6c8.3,0,15.1-6.8,15.1-15.1l0,0c0-8.3-6.8-15.1-15.1-15.1h-10.6c-8.3,0-15.1,6.8-15.1,15.1
	l0,0C750.7,342.7,757.4,349.5,765.7,349.5z"/>
<path class="st26" d="M719,349.5h10.6c8.3,0,15.1-6.8,15.1-15.1l0,0c0-8.3-6.8-15.1-15.1-15.1H719c-8.3,0-15.1,6.8-15.1,15.1l0,0
	C703.9,342.7,710.7,349.5,719,349.5z"/>
<line class="st26" x1="752.3" y1="334.4" x2="744.6" y2="334.6"/>
<line class="st27" x1="814.5" y1="310.7" x2="791.4" y2="329.4"/>
<path class="st17" d="M759.2,385.1c0,5.9-4.8,10.1-10.7,10.1l0,0c-5.9,0-10.7-4.2-10.7-10.1"/>
<line class="st27" x1="687.1" y1="310.7" x2="704.1" y2="327.7"/>
<path class="st23" d="M769,381.8c0.2-1.8-0.7-3.5-2.4-4.2c-3.1-1.3-17-4.9-17-4.9s-13.7,2.7-17.3,3.9c-1.6,0.5-2.7,1.9-2.8,3.6
	l-0.3,5.3c-0.2,2.6,2.2,4.7,4.8,4.2c5-1,15.7-3.7,15.7-3.7s9.9,2.7,13.5,3.9c2.4,0.8,4.9-0.8,5.3-3.3L769,381.8z"/>
<path class="st14" d="M746,353.6v13.2c0,0.6,0.7,1.1,1.3,1.1h7.8c2.1,0,3.3-2.5,1.9-4.1l-9-10.8C747.4,352.1,746,352.6,746,353.6z"
	/>
<ellipse class="st18" cx="724.5" cy="338.3" rx="3.7" ry="6.5"/>
<ellipse class="st18" cx="768.9" cy="338.3" rx="3.7" ry="6.5"/>
<g>
	<path class="st28" d="M577,988V676.5c0-16.3,11.6-29.5,25.9-29.5H882c14.3,0,25.9,13.2,25.9,29.5V988"/>
	<path class="st23" d="M924.1,980.5h-32.2V870.4c0-5.5,4.4-9.9,9.9-9.9h12.4c5.5,0,9.9,4.4,9.9,9.9L924.1,980.5L924.1,980.5z"/>
	<path class="st23" d="M593,980.5h-32.2V870.4c0-5.5,4.4-9.9,9.9-9.9h12.4c5.5,0,9.9,4.4,9.9,9.9L593,980.5L593,980.5z"/>
	<line class="st29" x1="890" y1="989" x2="926" y2="989"/>
	<line class="st29" x1="559" y1="989" x2="595" y2="989"/>
	<g>
		<path class="st30" d="M628,687.7c-12,0-21.8-9.8-21.8-21.8V444.6c0-12,9.8-21.8,21.8-21.8h229.8c12,0,21.8,9.8,21.8,21.8v221.3
			c0,12-9.8,21.8-21.8,21.8H628z"/>
		<path class="st23" d="M857.7,430.5c7.8,0,14.1,6.3,14.1,14.1v221.3c0,7.8-6.3,14.1-14.1,14.1H628c-7.8,0-14.1-6.3-14.1-14.1V444.6
			c0-7.8,6.3-14.1,14.1-14.1H857.7 M857.7,415.1H628c-16.3,0-29.6,13.3-29.6,29.6V666c0,16.3,13.3,29.6,29.6,29.6h229.8
			c16.3,0,29.6-13.3,29.6-29.6V444.6C887.3,428.3,874.1,415.1,857.7,415.1L857.7,415.1z"/>
	</g>
	<path class="st31" d="M872,499.1L814.7,431h-29c-2-0.3-4.1,0-6.3,0H711c-2.1,0-4.2-0.3-6.3,0h-28.1L614,505.8v56.7l55-68.4v186h152
		V492.6l51,62.9V499.1z"/>
	<path class="st6" d="M795.7,471c-2.1-2-5.2-1.7-7.1,0.5c-0.1,0.1-10.5,12.7-22.7,12.7c-8.5,0-14.8-6.3-17.6-9.8
		c-0.2-1.5-0.9-3-2.2-3.9c-1-0.7-2.1-0.9-3.1-0.8c-1.1-0.1-2.2,0.1-3.2,0.8c-1.3,0.9-2.1,2.4-2.2,3.9c-2.8,3.5-9.1,9.8-17.6,9.8
		c-12.2,0-22.5-12.5-22.7-12.7c-1.8-2.3-5-2.5-7-0.5c-2.1,2-2.3,5.4-0.5,7.7c0.5,0.7,13.4,16.5,30.2,16.5c10.6,0,18.4-6.1,23-11.1
		c4.6,4.9,12.4,11.1,23,11.1c16.8,0,29.7-15.8,30.2-16.5C798,476.4,797.8,473,795.7,471z"/>
	<path class="st6" d="M802,494.8c-2.1-2.2-5.4-2.2-7.5,0.1c-0.1,0.1-11.7,12.9-25.8,12.9c-9.7,0-16.8-6.2-20-9.8
		c-0.2-1.4-0.9-2.8-2.1-3.7c-1.1-0.9-2.4-1.2-3.6-1c-1.2-0.1-2.5,0.2-3.6,1c-1.2,0.9-1.9,2.3-2.1,3.7c-3.2,3.6-10.2,9.8-20,9.8
		c-14,0-25.7-12.7-25.8-12.9c-2-2.3-5.4-2.3-7.5-0.1c-2.1,2.2-2.1,5.8-0.1,8.1c0.6,0.7,14.9,16.3,33.4,16.3
		c11.9,0,20.7-6.4,25.7-11.3c5,4.9,13.8,11.3,25.7,11.3c18.5,0,32.8-15.7,33.4-16.3C804.1,500.6,804.1,497,802,494.8z"/>
	<path class="st6" d="M796.7,526.3c-1.5-2.5-4.6-3.3-6.9-1.7c-0.1,0.1-10.6,7.2-23.8,7.2c-8.5,0-14.8-6.3-17.6-9.8
		c-0.2-1.5-0.9-3-2.2-3.9c-1-0.7-2.1-0.9-3.2-0.8c-1.1-0.1-2.2,0.1-3.2,0.8c-1.3,0.9-2.1,2.4-2.2,3.9c-2.8,3.5-9.1,9.8-17.6,9.8
		c-13,0-23.7-7.2-23.8-7.2c-2.3-1.6-5.4-0.9-6.9,1.7c-1.5,2.5-0.8,5.9,1.5,7.5c0.5,0.4,13.1,8.9,29.1,8.9c10.6,0,18.4-6.1,23-11.1
		c4.6,4.9,12.4,11.1,23,11.1c16,0,28.6-8.6,29.1-8.9C797.5,532.2,798.1,528.8,796.7,526.3z"/>
	<path class="st6" d="M792.8,552.9c-1.2-2.6-4.1-3.6-6.4-2.3c-0.1,0.1-10,5.4-22.2,5.4c-7.7,0-13.4-6.3-16-9.8
		c-0.1-1.6-0.9-3.2-2.3-4.1c-0.9-0.6-1.9-0.8-2.9-0.7c-1-0.1-2,0.1-2.9,0.7c-1.4,0.9-2.2,2.5-2.3,4.1c-2.6,3.5-8.2,9.7-16,9.7
		c-12.1,0-22-5.2-22.2-5.4c-2.4-1.3-5.2-0.3-6.4,2.3s-0.2,5.7,2.1,7c0.5,0.3,12,6.5,26.5,6.5c9.7,0,16.9-5.9,21.2-10.8
		c4.3,4.9,11.5,10.8,21.2,10.8c14.6,0,26-6.2,26.5-6.5C793.1,558.5,794,555.4,792.8,552.9z"/>
	<path class="st6" d="M792.8,576.7c-1.2-2.6-4.1-3.6-6.4-2.3c-0.1,0.1-10,5.4-22.2,5.4c-7.7,0-13.4-6.3-16-9.8
		c-0.1-1.6-0.9-3.2-2.3-4.1c-0.9-0.6-1.9-0.8-2.9-0.7c-1-0.1-2,0.1-2.9,0.7c-1.4,0.9-2.2,2.5-2.3,4.1c-2.6,3.5-8.2,9.7-16,9.7
		c-12.1,0-22-5.2-22.2-5.4c-2.4-1.3-5.2-0.3-6.4,2.3s-0.2,5.7,2.1,7c0.5,0.3,12,6.5,26.5,6.5c9.7,0,16.9-5.9,21.2-10.8
		c4.3,4.9,11.5,10.8,21.2,10.8c14.6,0,26-6.2,26.5-6.5C793.1,582.3,794,579.2,792.8,576.7z"/>
	<path class="st32" d="M691,458c0,0,23.9-10.2,52-10.2s54,10.2,54,10.2"/>
	<path class="st6" d="M770.3,631.7c-14.3,0-25.8,11.6-25.8,25.8c0,3,0.5,5.8,1.5,8.5c-0.5,0-0.9,0-1.4,0c-1.6,0-3.1,0-4.7-0.1
		c0.9-2.6,1.4-5.5,1.4-8.4c0-14.3-11.6-25.8-25.8-25.8c-14.3,0-25.7,11.6-25.7,25.8c0,1,0.3,1.9,0.3,2.8V680h106v-22.5
		C796,643.3,784.5,631.7,770.3,631.7z M774.7,643.3c5,0,9,4,9,9s-4,9-9,9s-9-4-9-9S769.7,643.3,774.7,643.3z M711.1,643.3
		c5,0,9,4,9,9s-4,9-9,9s-9-4-9-9S706.1,643.3,711.1,643.3z"/>
	<path class="st6" d="M736,636.9v33.6c0,3.8,3,7.2,6.8,7.3c4,0.1,7.2-3.1,7.2-7v-33.9c0-1.8-1.5-3.3-3.3-3.3h-7.5
		C737.5,633.7,736,635.1,736,636.9z"/>
	<path class="st6" d="M750,589.9V450.7c0-3.4-3-6.4-6.8-6.5c-4-0.1-7.2,2.7-7.2,6.3V590c0,1.9,1.7,3.5,3.9,3.5h6.2
		C748.3,593.4,750,591.8,750,589.9z"/>
	<path class="st6" d="M736,601.9v6.6c0,1.7,1.5,3.1,3.4,3.1h7.2c1.9,0,3.4-1.4,3.4-3.1v-6.6c0-1.7-1.5-3.1-3.4-3.1h-7.2
		C737.5,598.7,736,600.1,736,601.9z"/>
	<path class="st6" d="M736,618.7v6.6c0,1.7,1.5,3.1,3.4,3.1h7.2c1.9,0,3.4-1.4,3.4-3.1v-6.6c0-1.7-1.5-3.1-3.4-3.1h-7.2
		C737.5,615.6,736,617,736,618.7z"/>
	<g>
		<g>
			<defs>
				<rect id="SVGID_1_" x="613.9" y="445.1" width="258" height="134.8"/>
			</defs>
			<clipPath id="SVGID_2_">
				<use xlink:href="#SVGID_1_"  style="overflow:visible;"/>
			</clipPath>
			<g class="st33">
				<path class="st6" d="M676.1,459.3c-0.6,0-1.1,0-1.6,0.1c0-0.1,0-0.1,0-0.2c0.1-4.1-3.1-7.5-7.3-7.6c-4.1-0.1-7.5,3.1-7.6,7.3
					c-0.1,2.3,1,4.5,2.6,5.9l-47.8,57.5c-1.3-1.4-3.1-2.2-5.2-2.3c-4.1-0.1-7.5,3.1-7.6,7.3c-0.1,4.1,3.1,7.5,7.3,7.6
					c0.6,0,1.1,0,1.6-0.1c0,0.1,0,0.1,0,0.2c-0.1,4.1,3.1,7.5,7.3,7.6c4.1,0.1,7.5-3.1,7.6-7.3c0.1-2.7-1.3-5.1-3.4-6.5l48-57.6
					c1.3,1.8,3.4,3,5.8,3.1c4.1,0.1,7.5-3.1,7.6-7.3C683.4,462.9,680.2,459.4,676.1,459.3z"/>
				<path class="st6" d="M879.6,520c-2,0-3.9,0.9-5.2,2.3l-47.7-57.6c1.7-1.4,2.7-3.5,2.6-5.9c-0.1-4.1-3.5-7.4-7.6-7.3
					s-7.4,3.5-7.3,7.6c0,0.1,0,0.1,0,0.2c-0.5-0.1-1.1-0.2-1.6-0.1c-4.1,0.1-7.4,3.5-7.3,7.6c0.1,4.1,3.5,7.4,7.6,7.3
					c2.4-0.1,4.5-1.3,5.8-3l47.8,57.8c-2.1,1.4-3.5,3.7-3.4,6.5c0.1,4.1,3.5,7.4,7.6,7.3c4.1-0.1,7.4-3.5,7.3-7.6c0-0.1,0-0.1,0-0.2
					c0.5,0.1,1.1,0.2,1.6,0.1c4.1-0.1,7.4-3.5,7.3-7.6C887.1,523.2,883.7,519.9,879.6,520z"/>
			</g>
		</g>
	</g>
</g>
</svg>
